<svg id="svg" version="1.1" xmlns="http://www.w3.org/2000/svg" xmlns:xlink="http://www.w3.org/1999/xlink" width="400" height="420.56384742951906" viewBox="0, 0, 400,420.56384742951906"><g id="svgg"><path id="path0" d="M198.814 1.166 C 198.539 1.830,198.074 2.573,197.781 2.816 C 197.487 3.059,197.346 3.515,197.467 3.829 C 197.587 4.143,197.530 4.400,197.340 4.400 C 197.151 4.400,196.740 4.985,196.429 5.700 C 196.117 6.415,195.423 7.703,194.887 8.563 C 194.350 9.422,193.870 10.402,193.820 10.741 C 193.771 11.080,193.521 11.426,193.265 11.512 C 193.009 11.597,192.800 12.112,192.800 12.657 C 192.800 13.311,192.641 13.549,192.332 13.358 C 192.022 13.167,191.946 13.283,192.107 13.701 C 192.249 14.072,192.101 14.429,191.749 14.564 C 191.419 14.691,191.268 14.987,191.414 15.222 C 191.559 15.458,191.363 15.999,190.977 16.425 C 190.592 16.851,190.422 17.200,190.600 17.200 C 190.778 17.200,190.598 17.560,190.200 18.000 C 189.802 18.440,189.639 18.806,189.838 18.813 C 190.037 18.820,189.851 19.090,189.424 19.413 C 188.996 19.736,188.799 20.000,188.986 20.000 C 189.172 20.000,189.040 20.315,188.693 20.700 C 188.346 21.085,187.943 21.877,187.798 22.460 C 187.652 23.044,187.186 23.893,186.762 24.348 C 186.339 24.803,186.027 25.316,186.070 25.488 C 186.208 26.035,184.857 28.800,184.452 28.800 C 184.238 28.800,183.941 29.359,183.791 30.042 C 183.487 31.423,181.578 35.325,181.104 35.533 C 180.937 35.607,180.800 35.922,180.800 36.233 C 180.800 36.545,180.612 36.800,180.382 36.800 C 180.153 36.800,179.992 37.025,180.026 37.300 C 180.121 38.082,179.545 39.600,179.153 39.600 C 178.959 39.600,178.800 39.795,178.800 40.032 C 178.800 40.270,178.183 41.694,177.430 43.195 C 176.676 44.697,176.166 46.033,176.296 46.163 C 176.427 46.293,176.323 46.400,176.067 46.400 C 175.810 46.400,175.600 46.670,175.600 47.000 C 175.600 47.330,175.420 47.600,175.200 47.600 C 174.980 47.600,174.800 47.870,174.800 48.200 C 174.800 48.530,174.658 48.800,174.485 48.800 C 174.312 48.800,174.140 49.202,174.103 49.692 C 174.066 50.183,173.803 50.768,173.518 50.992 C 172.909 51.472,170.683 55.754,170.541 56.719 C 170.488 57.086,170.254 57.449,170.022 57.526 C 169.790 57.603,169.600 58.022,169.600 58.457 C 169.600 58.892,169.457 59.159,169.283 59.051 C 169.109 58.944,168.938 59.223,168.905 59.672 C 168.871 60.122,168.563 60.799,168.221 61.176 C 167.880 61.554,167.600 62.174,167.600 62.555 C 167.600 62.936,167.420 63.136,167.200 63.000 C 166.980 62.864,166.800 63.101,166.800 63.527 C 166.800 63.953,166.532 64.524,166.204 64.796 C 165.877 65.068,165.698 65.436,165.808 65.613 C 165.918 65.790,165.736 66.207,165.404 66.539 C 165.072 66.871,164.800 67.521,164.800 67.984 C 164.800 68.447,164.530 68.929,164.200 69.055 C 163.870 69.182,163.600 69.554,163.600 69.881 C 163.600 70.469,162.435 72.811,161.950 73.200 C 161.813 73.310,161.579 73.961,161.430 74.646 C 161.282 75.331,160.816 76.261,160.396 76.712 C 159.976 77.163,159.515 77.999,159.372 78.570 C 159.229 79.141,158.951 79.706,158.756 79.827 C 158.560 79.948,158.400 80.397,158.400 80.824 C 158.400 81.251,158.220 81.600,158.000 81.600 C 157.780 81.600,157.600 81.855,157.600 82.167 C 157.600 82.478,157.448 82.793,157.262 82.867 C 156.330 83.234,156.346 85.308,157.279 85.036 C 157.786 84.889,159.190 84.573,160.400 84.333 C 161.610 84.094,162.960 83.760,163.400 83.591 C 164.576 83.140,171.203 81.994,172.620 81.997 C 173.291 81.999,174.011 81.831,174.220 81.625 C 174.429 81.418,177.081 81.122,180.113 80.966 C 183.145 80.810,185.720 80.529,185.836 80.341 C 186.112 79.895,213.888 79.895,214.164 80.341 C 214.280 80.529,216.855 80.810,219.887 80.966 C 222.919 81.122,225.571 81.418,225.780 81.625 C 225.989 81.831,226.709 81.999,227.380 81.997 C 228.797 81.994,235.424 83.140,236.600 83.591 C 237.040 83.760,238.390 84.094,239.600 84.333 C 240.810 84.573,242.232 84.894,242.759 85.046 C 243.702 85.320,243.777 83.463,242.849 82.804 C 242.692 82.692,242.064 81.520,241.456 80.200 C 240.171 77.415,240.074 77.223,238.672 74.700 C 238.091 73.655,237.747 72.797,237.908 72.794 C 238.069 72.791,238.017 72.656,237.794 72.494 C 237.263 72.110,234.400 66.470,234.400 65.808 C 234.400 65.527,234.130 65.074,233.800 64.800 C 233.470 64.526,233.200 63.953,233.200 63.527 C 233.200 63.101,233.020 62.864,232.800 63.000 C 232.445 63.219,232.327 62.943,232.434 62.145 C 232.453 62.004,232.318 61.779,232.134 61.644 C 231.659 61.296,230.400 58.829,230.400 58.248 C 230.400 57.979,230.175 57.535,229.900 57.260 C 229.625 56.985,229.400 56.618,229.400 56.444 C 229.400 55.949,227.043 51.431,226.630 51.133 C 226.426 50.986,226.196 50.454,226.120 49.950 C 226.043 49.447,225.810 48.930,225.603 48.802 C 225.158 48.527,221.200 40.632,221.200 40.019 C 221.200 39.789,221.062 39.600,220.894 39.600 C 220.620 39.600,219.200 36.724,219.200 36.169 C 219.200 36.044,218.930 35.673,218.600 35.343 C 218.270 35.013,218.000 34.418,218.000 34.020 C 218.000 33.623,217.732 33.076,217.404 32.804 C 217.077 32.532,216.907 32.150,217.028 31.955 C 217.149 31.760,217.057 31.600,216.824 31.600 C 216.591 31.600,216.400 31.313,216.400 30.963 C 216.400 30.613,216.042 29.872,215.605 29.316 C 215.168 28.761,214.909 28.147,215.029 27.953 C 215.149 27.759,215.071 27.600,214.855 27.600 C 214.640 27.600,214.335 27.015,214.178 26.300 C 214.021 25.586,213.602 24.731,213.246 24.400 C 212.891 24.070,212.598 23.620,212.596 23.400 C 212.589 22.715,211.065 19.827,210.417 19.270 C 210.078 18.979,210.038 18.863,210.330 19.012 C 210.768 19.237,210.769 19.139,210.333 18.442 C 210.044 17.979,209.660 17.600,209.480 17.600 C 209.300 17.600,209.256 17.432,209.383 17.228 C 209.509 17.023,209.427 16.740,209.200 16.600 C 208.973 16.460,208.891 16.177,209.017 15.972 C 209.144 15.768,209.046 15.600,208.800 15.600 C 208.554 15.600,208.464 15.420,208.600 15.200 C 208.736 14.980,208.657 14.800,208.424 14.800 C 208.191 14.800,208.000 14.429,208.000 13.976 C 208.000 13.523,207.820 13.264,207.600 13.400 C 207.375 13.539,207.200 13.218,207.200 12.666 C 207.200 12.126,206.905 11.572,206.543 11.433 C 206.181 11.295,205.997 11.070,206.132 10.934 C 206.419 10.647,205.173 8.400,204.726 8.400 C 204.561 8.400,204.529 8.130,204.655 7.800 C 204.782 7.470,204.686 7.200,204.443 7.200 C 204.199 7.200,204.000 6.930,204.000 6.600 C 204.000 6.270,203.820 6.000,203.600 6.000 C 203.380 6.000,203.200 5.758,203.200 5.461 C 203.200 4.847,202.007 2.301,201.578 2.000 C 201.421 1.890,201.225 1.440,201.142 1.000 C 200.891 -0.338,199.393 -0.231,198.814 1.166 M127.200 142.014 C 126.650 142.739,125.365 144.338,124.345 145.566 C 122.229 148.114,111.309 161.405,109.200 164.000 C 107.808 165.712,101.740 173.071,100.458 174.600 C 100.090 175.040,98.756 176.680,97.494 178.244 L 95.200 181.088 95.200 247.539 L 95.200 313.990 103.075 324.895 C 107.407 330.893,111.062 335.890,111.198 336.000 C 111.413 336.174,124.773 354.569,126.399 356.930 C 126.728 357.409,127.313 358.149,127.699 358.575 C 128.084 359.002,128.400 359.497,128.400 359.675 C 128.400 360.061,203.940 360.108,240.034 359.745 L 265.400 359.490 267.400 357.426 C 268.500 356.291,270.018 354.651,270.774 353.781 C 272.169 352.177,278.433 345.167,278.800 344.800 C 279.124 344.476,286.186 336.574,288.600 333.834 C 288.820 333.584,289.810 332.481,290.800 331.382 C 291.790 330.283,293.969 327.858,295.642 325.992 C 297.315 324.126,300.145 320.980,301.931 319.000 L 305.179 315.400 305.189 249.751 L 305.200 184.102 303.166 181.551 C 300.365 178.039,299.409 176.861,293.000 169.026 C 289.920 165.261,286.684 161.285,285.808 160.190 C 284.933 159.096,283.985 157.959,283.702 157.665 C 283.419 157.371,282.697 156.471,282.096 155.665 C 281.496 154.859,280.903 154.110,280.779 154.000 C 280.655 153.890,279.314 152.270,277.799 150.400 C 273.102 144.603,271.818 143.038,271.300 142.481 C 270.900 142.050,270.800 156.698,270.800 215.820 L 270.800 289.698 269.251 292.549 C 268.399 294.117,267.256 296.210,266.712 297.200 C 266.167 298.190,264.858 300.620,263.802 302.600 C 262.747 304.580,261.189 307.431,260.341 308.936 C 259.494 310.441,258.800 311.808,258.800 311.974 C 258.800 313.653,260.672 313.600,200.881 313.600 L 144.425 313.600 142.888 311.500 C 142.043 310.345,138.437 305.034,134.876 299.697 L 128.402 289.994 128.301 215.345 L 128.200 140.695 127.200 142.014 M40.156 313.048 C 40.048 313.461,40.013 313.894,40.079 314.009 C 40.146 314.125,39.795 314.653,39.300 315.185 C 38.805 315.716,38.400 316.477,38.400 316.875 C 38.400 317.274,38.220 317.600,38.000 317.600 C 37.780 317.600,37.600 317.971,37.600 318.424 C 37.600 318.877,37.420 319.136,37.200 319.000 C 36.975 318.861,36.800 319.182,36.800 319.734 C 36.800 320.273,36.530 320.818,36.200 320.945 C 35.870 321.071,35.600 321.603,35.600 322.125 C 35.600 322.648,35.252 323.391,34.827 323.776 C 34.402 324.160,34.136 324.690,34.237 324.952 C 34.337 325.214,34.055 325.819,33.610 326.297 C 33.164 326.775,32.800 327.444,32.800 327.783 C 32.800 328.122,32.609 328.400,32.376 328.400 C 32.143 328.400,32.064 328.580,32.200 328.800 C 32.336 329.020,32.227 329.200,31.957 329.200 C 31.687 329.200,31.580 329.314,31.719 329.453 C 31.858 329.592,31.760 330.087,31.500 330.553 C 31.241 331.019,31.022 331.542,31.014 331.715 C 31.006 331.888,30.730 332.200,30.400 332.408 C 30.070 332.617,29.921 332.791,30.068 332.794 C 30.216 332.797,29.926 333.572,29.425 334.515 C 28.923 335.459,28.333 336.584,28.113 337.015 C 27.894 337.447,27.419 338.368,27.057 339.062 C 26.696 339.756,26.400 340.621,26.400 340.985 C 26.400 341.349,26.220 341.536,26.000 341.400 C 25.780 341.264,25.600 341.433,25.600 341.776 C 25.600 342.119,25.450 342.400,25.267 342.400 C 25.083 342.400,24.933 342.625,24.933 342.900 C 24.933 343.679,23.550 346.400,23.154 346.400 C 22.959 346.400,22.845 346.536,22.900 346.702 C 23.080 347.246,21.462 350.762,21.127 350.555 C 20.947 350.444,20.800 350.651,20.800 351.016 C 20.800 351.665,19.657 354.405,19.221 354.800 C 18.908 355.084,17.239 358.252,14.955 362.900 C 14.550 363.725,14.123 364.400,14.007 364.400 C 13.890 364.400,13.561 364.985,13.275 365.700 C 12.425 367.825,11.431 369.783,11.070 370.045 C 10.884 370.179,10.773 370.359,10.825 370.445 C 11.027 370.783,10.323 372.400,9.973 372.400 C 9.768 372.400,9.621 372.535,9.647 372.700 C 9.787 373.585,9.552 374.417,9.220 374.212 C 9.011 374.083,8.724 374.597,8.582 375.354 C 8.440 376.111,7.992 377.087,7.586 377.523 C 7.180 377.958,6.957 378.424,7.091 378.557 C 7.224 378.691,7.123 378.800,6.867 378.800 C 6.610 378.800,6.400 379.222,6.400 379.738 C 6.400 380.254,6.052 380.991,5.627 381.376 C 5.202 381.760,4.951 382.328,5.070 382.638 C 5.188 382.947,5.086 383.200,4.843 383.200 C 4.599 383.200,4.400 383.470,4.400 383.800 C 4.400 384.130,4.220 384.400,4.000 384.400 C 3.780 384.400,3.600 384.760,3.600 385.200 C 3.600 385.640,3.420 386.000,3.200 386.000 C 2.980 386.000,2.819 386.135,2.843 386.300 C 2.938 386.958,2.281 388.400,1.887 388.400 C 1.656 388.400,1.581 388.515,1.722 388.655 C 1.862 388.795,1.628 389.399,1.202 389.997 C 0.776 390.595,0.309 391.828,0.164 392.736 L -0.100 394.389 53.801 394.397 C 112.436 394.406,108.907 394.549,105.255 392.323 C 103.492 391.249,98.406 387.618,97.671 386.910 C 97.381 386.629,97.016 386.400,96.861 386.400 C 96.705 386.400,96.026 385.905,95.351 385.300 C 94.676 384.695,93.511 383.721,92.762 383.135 C 86.066 377.896,73.265 365.316,68.806 359.590 C 66.869 357.104,66.329 356.441,65.333 355.325 C 64.856 354.791,63.776 353.330,62.933 352.077 C 62.090 350.825,61.309 349.710,61.198 349.600 C 60.603 349.012,58.676 346.206,56.803 343.200 C 55.638 341.330,54.575 339.710,54.442 339.600 C 54.219 339.415,53.804 338.688,52.043 335.400 C 51.689 334.740,51.308 334.110,51.196 334.000 C 51.084 333.890,50.634 333.080,50.196 332.200 C 49.758 331.320,49.310 330.510,49.200 330.400 C 48.697 329.897,47.600 327.615,47.600 327.072 C 47.600 326.739,47.465 326.407,47.300 326.333 C 46.827 326.123,45.600 323.744,45.600 323.038 C 45.600 322.687,45.420 322.400,45.200 322.400 C 44.980 322.400,44.800 322.051,44.800 321.624 C 44.800 321.197,44.634 320.745,44.431 320.619 C 44.228 320.494,43.943 319.853,43.799 319.195 C 43.655 318.538,43.392 318.000,43.215 318.000 C 43.038 318.000,42.801 317.595,42.687 317.100 C 42.001 314.102,40.506 311.709,40.156 313.048 M358.946 312.967 C 358.697 313.242,358.368 314.035,358.216 314.729 C 358.063 315.423,357.772 316.094,357.569 316.219 C 357.366 316.345,357.200 316.797,357.200 317.224 C 357.200 317.651,357.034 318.000,356.832 318.000 C 356.629 318.000,356.345 318.538,356.201 319.195 C 356.057 319.853,355.772 320.494,355.569 320.619 C 355.366 320.745,355.200 321.197,355.200 321.624 C 355.200 322.051,355.020 322.400,354.800 322.400 C 354.580 322.400,354.400 322.687,354.400 323.038 C 354.400 323.744,353.173 326.123,352.700 326.333 C 352.535 326.407,352.400 326.739,352.400 327.072 C 352.400 327.622,351.293 329.916,350.794 330.400 C 350.681 330.510,350.231 331.363,349.794 332.295 C 349.357 333.228,348.879 333.993,348.732 333.995 C 348.584 333.998,348.345 334.540,348.200 335.200 C 348.055 335.860,347.800 336.400,347.633 336.400 C 347.465 336.400,346.985 337.118,346.564 337.995 C 346.144 338.873,345.665 339.593,345.500 339.595 C 345.335 339.598,345.200 339.759,345.200 339.954 C 345.200 340.574,335.760 354.381,334.640 355.400 C 334.398 355.620,333.666 356.514,333.014 357.386 C 332.362 358.258,331.552 359.279,331.214 359.654 C 330.876 360.029,329.700 361.355,328.600 362.602 C 325.005 366.674,324.734 366.970,322.010 369.800 C 319.052 372.873,314.932 376.800,314.666 376.800 C 314.573 376.800,313.785 377.475,312.915 378.300 C 311.490 379.652,310.282 380.693,307.200 383.227 C 306.650 383.679,305.809 384.384,305.331 384.795 C 304.853 385.205,303.953 385.865,303.331 386.261 C 302.709 386.657,302.110 387.082,302.000 387.205 C 301.587 387.667,294.418 392.800,294.185 392.800 C 293.876 392.800,292.800 393.868,292.800 394.174 C 292.800 394.301,316.920 394.402,346.400 394.397 L 400.000 394.389 399.986 393.494 C 399.979 393.002,399.625 391.880,399.200 391.000 C 398.775 390.120,398.421 389.175,398.414 388.900 C 398.406 388.625,398.220 388.400,398.000 388.400 C 397.780 388.400,397.600 388.040,397.600 387.600 C 397.600 387.160,397.447 386.800,397.260 386.800 C 397.073 386.800,396.587 385.990,396.178 385.000 C 395.770 384.010,395.278 383.200,395.085 383.200 C 394.891 383.200,394.812 382.975,394.907 382.700 C 395.003 382.425,394.558 381.433,393.919 380.497 C 393.280 379.560,392.867 378.615,393.002 378.397 C 393.137 378.178,393.069 378.000,392.852 378.000 C 392.634 378.000,392.103 377.055,391.673 375.900 C 391.242 374.745,390.734 373.833,390.545 373.874 C 390.355 373.914,390.254 373.685,390.320 373.365 C 390.385 373.044,390.160 372.503,389.820 372.162 C 389.479 371.822,389.200 371.196,389.200 370.771 C 389.200 370.347,389.020 370.000,388.800 370.000 C 388.580 370.000,388.400 369.610,388.400 369.133 C 388.400 368.657,388.283 368.384,388.139 368.527 C 387.816 368.851,386.731 366.835,386.998 366.404 C 387.104 366.232,386.926 365.871,386.602 365.601 C 386.278 365.332,385.627 364.277,385.157 363.256 C 383.543 359.755,381.152 355.138,380.778 354.800 C 380.218 354.295,377.024 347.340,377.132 346.860 C 377.199 346.563,377.094 346.418,376.900 346.538 C 376.546 346.757,374.911 343.272,375.100 342.702 C 375.155 342.536,375.020 342.400,374.800 342.400 C 374.580 342.400,374.400 342.145,374.400 341.833 C 374.400 341.522,374.265 341.207,374.100 341.133 C 373.665 340.940,372.400 338.435,372.400 337.768 C 372.400 337.455,372.260 337.200,372.088 337.200 C 371.916 337.200,371.431 336.311,371.010 335.225 C 370.588 334.139,370.086 333.347,369.895 333.465 C 369.703 333.583,369.578 333.437,369.617 333.140 C 369.710 332.421,369.175 330.800,368.844 330.800 C 368.566 330.800,367.621 329.051,366.738 326.900 C 366.445 326.185,366.049 325.600,365.860 325.600 C 365.670 325.600,365.619 325.328,365.746 324.996 C 365.882 324.643,365.651 324.189,365.189 323.900 C 364.728 323.612,364.400 322.969,364.400 322.353 C 364.400 321.773,364.130 321.074,363.800 320.800 C 363.470 320.526,363.200 319.953,363.200 319.527 C 363.200 319.101,363.020 318.864,362.800 319.000 C 362.580 319.136,362.400 318.946,362.400 318.578 C 362.400 317.844,360.798 314.800,360.411 314.800 C 360.279 314.800,360.141 314.413,360.105 313.940 C 360.019 312.788,359.502 312.354,358.946 312.967 " stroke="none" fill="#f9e5e2" fill-rule="evenodd"></path><path id="path1" d="M187.000 81.020 C 183.480 81.300,179.250 81.732,177.600 81.980 C 171.172 82.944,166.941 83.659,165.600 84.007 C 163.729 84.493,159.314 85.468,157.700 85.751 C 156.966 85.881,156.400 85.810,156.400 85.590 C 156.400 85.376,156.040 85.200,155.600 85.200 C 155.160 85.200,154.800 85.359,154.800 85.554 C 154.800 85.749,153.810 86.032,152.600 86.183 C 151.390 86.334,150.400 86.625,150.400 86.829 C 150.400 87.033,149.950 87.200,149.400 87.200 C 148.850 87.200,148.400 87.363,148.400 87.562 C 148.400 87.762,147.500 88.049,146.400 88.200 C 145.300 88.351,144.400 88.638,144.400 88.838 C 144.400 89.037,143.950 89.200,143.400 89.200 C 142.850 89.200,142.400 89.357,142.400 89.549 C 142.400 89.741,141.682 90.013,140.805 90.153 C 139.928 90.293,138.592 90.755,137.835 91.180 C 137.079 91.605,135.817 92.073,135.030 92.221 C 134.244 92.368,133.600 92.649,133.600 92.845 C 133.600 93.040,133.240 93.200,132.800 93.200 C 132.360 93.200,132.000 93.360,132.000 93.555 C 132.000 93.751,131.370 94.029,130.600 94.174 C 129.830 94.318,129.200 94.608,129.200 94.818 C 129.200 95.028,128.840 95.200,128.400 95.200 C 127.960 95.200,127.600 95.366,127.600 95.568 C 127.600 95.771,127.060 96.055,126.400 96.200 C 125.740 96.345,125.200 96.629,125.200 96.832 C 125.200 97.034,124.840 97.200,124.400 97.200 C 123.960 97.200,123.600 97.366,123.600 97.568 C 123.600 97.771,123.060 98.055,122.400 98.200 C 121.740 98.345,121.200 98.629,121.200 98.832 C 121.200 99.034,120.945 99.200,120.632 99.200 C 120.058 99.200,117.568 100.394,117.200 100.846 C 117.090 100.981,116.595 101.219,116.100 101.373 C 115.605 101.528,115.200 101.822,115.200 102.027 C 115.200 102.232,114.840 102.400,114.400 102.400 C 113.960 102.400,113.598 102.535,113.595 102.700 C 113.593 102.865,112.873 103.344,111.995 103.764 C 111.118 104.185,110.400 104.660,110.400 104.821 C 110.400 104.982,109.950 105.226,109.400 105.364 C 108.850 105.502,108.400 105.792,108.400 106.008 C 108.400 106.223,108.130 106.400,107.800 106.400 C 107.470 106.400,107.200 106.577,107.200 106.792 C 107.200 107.008,106.750 107.298,106.200 107.436 C 105.650 107.574,105.200 107.819,105.200 107.980 C 105.200 108.142,104.570 108.613,103.800 109.028 C 103.030 109.443,102.400 109.921,102.400 110.091 C 102.400 110.261,102.130 110.400,101.800 110.400 C 101.470 110.400,101.200 110.541,101.200 110.714 C 101.200 110.886,100.615 111.367,99.900 111.782 C 99.185 112.198,98.456 112.777,98.280 113.069 C 98.104 113.361,97.732 113.600,97.452 113.600 C 97.173 113.600,96.564 114.005,96.100 114.500 C 95.043 115.626,94.105 116.400,93.797 116.400 C 93.667 116.400,92.912 117.030,92.119 117.800 C 91.326 118.570,90.533 119.200,90.358 119.200 C 90.182 119.200,89.138 120.100,88.038 121.200 C 86.938 122.300,85.923 123.200,85.783 123.200 C 85.643 123.200,84.286 124.415,82.769 125.900 C 81.251 127.385,79.782 128.816,79.504 129.081 C 79.227 129.345,78.780 129.795,78.511 130.081 C 78.242 130.366,77.792 130.828,77.511 131.106 C 73.772 134.811,72.800 135.845,72.800 136.117 C 72.800 136.293,71.900 137.338,70.800 138.438 C 69.700 139.538,68.800 140.582,68.800 140.758 C 68.800 140.933,68.170 141.726,67.400 142.519 C 66.630 143.312,66.000 144.072,66.000 144.209 C 66.000 144.345,65.775 144.700,65.500 144.996 C 65.225 145.293,64.640 146.012,64.200 146.593 C 63.760 147.175,63.085 147.999,62.700 148.425 C 62.315 148.851,62.000 149.337,62.000 149.504 C 62.000 149.671,61.550 150.293,61.000 150.887 C 60.450 151.480,60.000 152.153,60.000 152.383 C 60.000 152.612,59.861 152.800,59.691 152.800 C 59.521 152.800,59.043 153.430,58.628 154.200 C 58.213 154.970,57.722 155.600,57.537 155.600 C 57.352 155.600,57.200 155.857,57.200 156.171 C 57.200 156.486,56.975 156.988,56.700 157.288 C 56.111 157.931,55.307 159.156,54.920 160.000 C 54.769 160.330,54.410 160.838,54.122 161.129 C 53.835 161.419,53.600 161.914,53.600 162.229 C 53.600 162.543,53.420 162.800,53.200 162.800 C 52.980 162.800,52.800 163.070,52.800 163.400 C 52.800 163.730,52.620 164.000,52.400 164.000 C 52.180 164.000,52.000 164.338,52.000 164.751 C 52.000 165.164,51.730 165.726,51.400 166.000 C 51.070 166.274,50.800 166.746,50.800 167.049 C 50.800 167.352,50.634 167.600,50.432 167.600 C 50.229 167.600,49.945 168.140,49.800 168.800 C 49.655 169.460,49.371 170.000,49.168 170.000 C 48.966 170.000,48.800 170.360,48.800 170.800 C 48.800 171.240,48.634 171.600,48.432 171.600 C 48.229 171.600,47.945 172.140,47.800 172.800 C 47.655 173.460,47.413 174.000,47.263 174.000 C 46.965 174.000,45.600 176.957,45.600 177.603 C 45.600 177.821,45.464 178.000,45.298 178.000 C 45.131 178.000,44.749 178.585,44.448 179.300 C 44.147 180.015,43.653 181.123,43.350 181.761 C 43.048 182.400,42.800 183.165,42.800 183.461 C 42.800 183.758,42.636 184.000,42.435 184.000 C 42.234 184.000,41.949 184.720,41.800 185.600 C 41.651 186.480,41.366 187.200,41.165 187.200 C 40.964 187.200,40.800 187.549,40.800 187.976 C 40.800 188.403,40.630 188.858,40.423 188.986 C 40.216 189.114,39.925 190.024,39.778 191.009 C 39.630 191.994,39.350 192.800,39.155 192.800 C 38.960 192.800,38.800 193.250,38.800 193.800 C 38.800 194.350,38.637 194.800,38.438 194.800 C 38.238 194.800,37.951 195.700,37.800 196.800 C 37.649 197.900,37.362 198.800,37.162 198.800 C 36.963 198.800,36.800 199.250,36.800 199.800 C 36.800 200.350,36.633 200.800,36.429 200.800 C 36.225 200.800,35.934 201.790,35.783 203.000 C 35.632 204.210,35.349 205.200,35.154 205.200 C 34.959 205.200,34.800 205.729,34.800 206.376 C 34.800 207.023,34.634 207.655,34.431 207.781 C 34.229 207.906,33.938 209.177,33.785 210.604 C 33.632 212.032,33.348 213.200,33.153 213.200 C 32.959 213.200,32.800 213.909,32.800 214.776 C 32.800 215.643,32.633 216.456,32.430 216.582 C 32.226 216.708,31.933 218.428,31.778 220.405 C 31.623 222.382,31.340 224.000,31.148 224.000 C 30.957 224.000,30.800 225.134,30.800 226.520 C 30.800 228.003,30.594 229.246,30.300 229.540 C 29.717 230.122,29.568 266.481,30.135 269.600 C 30.315 270.590,30.553 272.615,30.664 274.100 C 30.775 275.585,31.010 276.800,31.186 276.800 C 31.361 276.800,31.633 278.329,31.788 280.199 C 31.944 282.068,32.235 283.698,32.436 283.822 C 32.636 283.946,32.800 284.746,32.800 285.600 C 32.800 286.454,32.966 287.255,33.169 287.381 C 33.371 287.506,33.663 288.779,33.816 290.210 C 33.969 291.641,34.253 292.909,34.447 293.029 C 34.641 293.149,34.800 293.676,34.800 294.200 C 34.800 294.724,34.959 295.251,35.153 295.371 C 35.348 295.491,35.630 296.582,35.782 297.795 C 35.934 299.008,36.225 300.000,36.429 300.000 C 36.633 300.000,36.800 300.450,36.800 301.000 C 36.800 301.550,36.963 302.000,37.162 302.000 C 37.362 302.000,37.649 302.900,37.800 304.000 C 37.951 305.100,38.238 306.000,38.438 306.000 C 38.637 306.000,38.800 306.450,38.800 307.000 C 38.800 307.550,38.980 308.000,39.200 308.000 C 39.420 308.000,39.600 308.333,39.600 308.740 C 39.600 310.093,40.441 311.917,41.149 312.103 C 41.540 312.205,42.172 313.147,42.585 314.243 C 44.189 318.499,48.546 327.575,51.280 332.357 C 52.336 334.204,53.200 335.780,53.200 335.860 C 53.200 336.560,63.707 352.259,64.804 353.200 C 64.932 353.310,65.887 354.515,66.925 355.877 C 67.963 357.240,69.035 358.590,69.308 358.877 C 69.581 359.165,70.881 360.660,72.198 362.200 C 78.446 369.508,89.239 379.534,97.417 385.628 C 99.608 387.260,101.490 388.687,101.600 388.798 C 101.710 388.909,103.368 390.063,105.285 391.362 C 107.202 392.662,108.675 393.878,108.560 394.065 C 108.281 394.516,109.216 395.424,110.319 395.774 C 110.803 395.928,111.200 396.222,111.200 396.427 C 111.200 396.632,111.470 396.800,111.800 396.800 C 112.130 396.800,112.400 396.966,112.400 397.168 C 112.400 397.371,112.985 397.665,113.700 397.822 C 114.414 397.979,115.280 398.431,115.623 398.827 C 115.967 399.223,116.732 399.668,117.324 399.817 C 117.916 399.965,118.400 400.247,118.400 400.443 C 118.400 400.640,118.670 400.800,119.000 400.800 C 119.330 400.800,119.600 400.960,119.600 401.155 C 119.600 401.351,120.230 401.629,121.000 401.774 C 121.770 401.918,122.400 402.208,122.400 402.418 C 122.400 402.628,122.670 402.800,123.000 402.800 C 123.330 402.800,123.600 402.960,123.600 403.155 C 123.600 403.351,124.230 403.629,125.000 403.774 C 125.770 403.918,126.400 404.208,126.400 404.418 C 126.400 404.628,126.670 404.800,127.000 404.800 C 127.330 404.800,127.600 404.960,127.600 405.155 C 127.600 405.351,128.230 405.629,129.000 405.774 C 129.770 405.918,130.400 406.208,130.400 406.418 C 130.400 406.628,130.649 406.800,130.954 406.800 C 131.259 406.800,132.024 407.069,132.654 407.398 C 133.284 407.726,134.115 407.996,134.500 407.998 C 134.885 407.999,135.200 408.180,135.200 408.400 C 135.200 408.620,135.449 408.800,135.754 408.800 C 136.059 408.800,136.824 409.069,137.454 409.398 C 138.084 409.726,139.005 409.996,139.500 409.998 C 139.995 409.999,140.400 410.180,140.400 410.400 C 140.400 410.620,140.850 410.800,141.400 410.800 C 141.950 410.800,142.400 410.963,142.400 411.162 C 142.400 411.362,143.300 411.649,144.400 411.800 C 145.500 411.951,146.400 412.238,146.400 412.438 C 146.400 412.637,146.850 412.800,147.400 412.800 C 147.950 412.800,148.400 412.963,148.400 413.162 C 148.400 413.362,149.300 413.649,150.400 413.800 C 151.500 413.951,152.400 414.238,152.400 414.438 C 152.400 414.637,152.904 414.800,153.520 414.800 C 154.136 414.800,154.819 414.979,155.038 415.198 C 155.256 415.416,156.552 415.712,157.918 415.854 C 159.283 415.997,160.400 416.249,160.400 416.413 C 160.400 416.722,160.776 416.806,166.200 417.714 C 167.960 418.009,169.670 418.362,170.000 418.500 C 170.330 418.637,171.410 418.855,172.400 418.984 C 173.390 419.114,175.370 419.393,176.800 419.606 C 184.513 420.752,224.892 420.389,226.180 419.162 C 226.389 418.963,227.304 418.800,228.213 418.800 C 229.123 418.800,230.001 418.665,230.164 418.500 C 230.328 418.335,231.843 417.984,233.531 417.721 C 237.975 417.027,239.349 416.738,239.800 416.399 C 240.020 416.234,241.232 415.974,242.494 415.821 C 243.755 415.669,244.891 415.377,245.017 415.172 C 245.144 414.967,245.777 414.800,246.424 414.800 C 247.071 414.800,247.600 414.637,247.600 414.438 C 247.600 414.238,248.500 413.951,249.600 413.800 C 250.700 413.649,251.600 413.362,251.600 413.162 C 251.600 412.963,252.050 412.800,252.600 412.800 C 253.150 412.800,253.600 412.637,253.600 412.438 C 253.600 412.238,254.500 411.951,255.600 411.800 C 256.700 411.649,257.600 411.362,257.600 411.162 C 257.600 410.963,258.050 410.800,258.600 410.800 C 259.150 410.800,259.600 410.620,259.600 410.400 C 259.600 410.180,260.005 409.999,260.500 409.998 C 260.995 409.996,261.916 409.726,262.546 409.398 C 263.176 409.069,263.941 408.800,264.246 408.800 C 264.551 408.800,264.800 408.620,264.800 408.400 C 264.800 408.180,265.115 407.999,265.500 407.998 C 265.885 407.996,266.716 407.726,267.346 407.398 C 267.976 407.069,268.741 406.800,269.046 406.800 C 269.351 406.800,269.600 406.628,269.600 406.418 C 269.600 406.208,270.230 405.918,271.000 405.774 C 271.770 405.629,272.400 405.351,272.400 405.155 C 272.400 404.960,272.670 404.800,273.000 404.800 C 273.330 404.800,273.600 404.628,273.600 404.418 C 273.600 404.208,274.230 403.918,275.000 403.774 C 275.770 403.629,276.400 403.351,276.400 403.155 C 276.400 402.960,276.670 402.800,277.000 402.800 C 277.330 402.800,277.600 402.628,277.600 402.418 C 277.600 402.208,278.230 401.918,279.000 401.774 C 279.770 401.629,280.400 401.351,280.400 401.155 C 280.400 400.960,280.670 400.800,281.000 400.800 C 281.330 400.800,281.600 400.640,281.600 400.443 C 281.600 400.247,282.084 399.965,282.676 399.817 C 283.268 399.668,284.033 399.223,284.377 398.827 C 284.720 398.431,285.586 397.979,286.300 397.822 C 287.015 397.665,287.600 397.371,287.600 397.168 C 287.600 396.966,287.870 396.800,288.200 396.800 C 288.530 396.800,288.800 396.632,288.800 396.427 C 288.800 396.222,289.197 395.928,289.681 395.774 C 290.762 395.431,291.595 394.635,291.614 393.929 C 291.621 393.638,293.106 392.411,294.914 391.201 C 296.721 389.992,298.470 388.789,298.800 388.529 C 299.130 388.269,300.930 386.920,302.800 385.530 C 306.802 382.557,307.047 382.357,311.769 378.214 C 329.340 362.799,342.714 345.296,352.812 324.505 C 356.285 317.353,356.338 317.238,357.464 314.247 C 357.869 313.172,358.504 312.209,358.875 312.107 C 359.564 311.916,360.400 310.071,360.400 308.740 C 360.400 308.333,360.580 308.000,360.800 308.000 C 361.020 308.000,361.200 307.550,361.200 307.000 C 361.200 306.450,361.363 306.000,361.562 306.000 C 361.762 306.000,362.049 305.100,362.200 304.000 C 362.351 302.900,362.638 302.000,362.838 302.000 C 363.037 302.000,363.200 301.550,363.200 301.000 C 363.200 300.450,363.367 300.000,363.571 300.000 C 363.775 300.000,364.066 299.008,364.218 297.795 C 364.370 296.582,364.652 295.491,364.847 295.371 C 365.041 295.251,365.200 294.724,365.200 294.200 C 365.200 293.676,365.359 293.149,365.553 293.029 C 365.747 292.909,366.031 291.641,366.184 290.210 C 366.337 288.779,366.629 287.506,366.831 287.381 C 367.034 287.255,367.200 286.454,367.200 285.600 C 367.200 284.746,367.364 283.946,367.564 283.822 C 367.765 283.698,368.056 282.068,368.212 280.199 C 368.367 278.329,368.639 276.800,368.814 276.800 C 368.990 276.800,369.229 275.585,369.344 274.100 C 369.460 272.615,369.758 269.420,370.006 267.000 C 370.623 260.983,370.355 230.195,369.679 229.519 C 369.408 229.248,369.200 227.945,369.200 226.520 C 369.200 225.134,369.043 224.000,368.852 224.000 C 368.660 224.000,368.377 222.382,368.222 220.405 C 368.067 218.428,367.774 216.708,367.570 216.582 C 367.367 216.456,367.200 215.643,367.200 214.776 C 367.200 213.909,367.041 213.200,366.847 213.200 C 366.652 213.200,366.368 212.032,366.215 210.604 C 366.062 209.177,365.771 207.906,365.569 207.781 C 365.366 207.655,365.200 207.023,365.200 206.376 C 365.200 205.729,365.041 205.200,364.846 205.200 C 364.651 205.200,364.368 204.210,364.217 203.000 C 364.066 201.790,363.775 200.800,363.571 200.800 C 363.367 200.800,363.200 200.350,363.200 199.800 C 363.200 199.250,363.037 198.800,362.838 198.800 C 362.638 198.800,362.351 197.900,362.200 196.800 C 362.049 195.700,361.762 194.800,361.562 194.800 C 361.363 194.800,361.200 194.350,361.200 193.800 C 361.200 193.250,361.040 192.800,360.845 192.800 C 360.650 192.800,360.370 191.994,360.222 191.009 C 360.075 190.024,359.784 189.114,359.577 188.986 C 359.370 188.858,359.200 188.403,359.200 187.976 C 359.200 187.549,359.036 187.200,358.835 187.200 C 358.634 187.200,358.349 186.480,358.200 185.600 C 358.051 184.720,357.766 184.000,357.565 184.000 C 357.364 184.000,357.200 183.758,357.200 183.461 C 357.200 183.165,356.952 182.400,356.650 181.761 C 356.347 181.123,355.853 180.015,355.552 179.300 C 355.251 178.585,354.869 178.000,354.702 178.000 C 354.536 178.000,354.400 177.821,354.400 177.603 C 354.400 176.957,353.035 174.000,352.737 174.000 C 352.587 174.000,352.345 173.460,352.200 172.800 C 352.055 172.140,351.771 171.600,351.568 171.600 C 351.366 171.600,351.200 171.240,351.200 170.800 C 351.200 170.360,351.034 170.000,350.832 170.000 C 350.629 170.000,350.345 169.460,350.200 168.800 C 350.055 168.140,349.771 167.600,349.568 167.600 C 349.366 167.600,349.200 167.352,349.200 167.049 C 349.200 166.746,348.930 166.274,348.600 166.000 C 348.270 165.726,348.000 165.164,348.000 164.751 C 348.000 164.338,347.865 163.998,347.700 163.995 C 347.535 163.993,347.056 163.273,346.636 162.395 C 346.215 161.518,345.740 160.800,345.579 160.800 C 345.418 160.800,345.174 160.350,345.036 159.800 C 344.898 159.250,344.608 158.800,344.392 158.800 C 344.177 158.800,344.000 158.530,344.000 158.200 C 344.000 157.870,343.823 157.600,343.608 157.600 C 343.392 157.600,343.102 157.150,342.964 156.600 C 342.826 156.050,342.581 155.600,342.420 155.600 C 342.258 155.600,341.787 154.970,341.372 154.200 C 340.957 153.430,340.479 152.800,340.309 152.800 C 340.139 152.800,340.000 152.530,340.000 152.200 C 340.000 151.870,339.859 151.600,339.686 151.600 C 339.514 151.600,339.039 151.035,338.631 150.345 C 338.223 149.654,337.599 148.766,337.245 148.370 C 336.890 147.975,336.240 147.175,335.800 146.593 C 335.360 146.012,334.775 145.293,334.500 144.996 C 334.225 144.700,334.000 144.345,334.000 144.209 C 334.000 144.072,333.370 143.312,332.600 142.519 C 331.830 141.726,331.200 140.933,331.200 140.758 C 331.200 140.582,330.300 139.538,329.200 138.438 C 328.100 137.338,327.200 136.293,327.200 136.117 C 327.200 135.940,326.255 134.858,325.100 133.712 C 323.945 132.566,322.780 131.397,322.511 131.114 C 321.901 130.473,321.526 130.103,318.836 127.497 C 317.645 126.344,316.186 124.905,315.592 124.300 C 314.999 123.695,314.389 123.200,314.238 123.200 C 314.086 123.200,313.062 122.300,311.962 121.200 C 310.862 120.100,309.818 119.200,309.642 119.200 C 309.467 119.200,308.674 118.570,307.881 117.800 C 307.088 117.030,306.333 116.400,306.203 116.400 C 305.895 116.400,304.957 115.626,303.900 114.500 C 303.436 114.005,302.827 113.600,302.548 113.600 C 302.268 113.600,301.896 113.361,301.720 113.069 C 301.544 112.777,300.815 112.198,300.100 111.782 C 299.385 111.367,298.800 110.886,298.800 110.714 C 298.800 110.541,298.530 110.400,298.200 110.400 C 297.870 110.400,297.600 110.261,297.600 110.091 C 297.600 109.921,296.970 109.443,296.200 109.028 C 295.430 108.613,294.800 108.142,294.800 107.980 C 294.800 107.819,294.350 107.574,293.800 107.436 C 293.250 107.298,292.800 107.008,292.800 106.792 C 292.800 106.577,292.530 106.400,292.200 106.400 C 291.870 106.400,291.600 106.223,291.600 106.008 C 291.600 105.792,291.150 105.502,290.600 105.364 C 290.050 105.226,289.600 104.982,289.600 104.821 C 289.600 104.660,288.882 104.185,288.005 103.764 C 287.127 103.344,286.407 102.865,286.405 102.700 C 286.402 102.535,286.040 102.400,285.600 102.400 C 285.160 102.400,284.800 102.232,284.800 102.027 C 284.800 101.822,284.395 101.528,283.900 101.373 C 283.405 101.219,282.910 100.981,282.800 100.846 C 282.432 100.394,279.942 99.200,279.368 99.200 C 279.055 99.200,278.800 99.034,278.800 98.832 C 278.800 98.629,278.260 98.345,277.600 98.200 C 276.940 98.055,276.400 97.771,276.400 97.568 C 276.400 97.366,276.040 97.200,275.600 97.200 C 275.160 97.200,274.800 97.034,274.800 96.832 C 274.800 96.629,274.260 96.345,273.600 96.200 C 272.940 96.055,272.400 95.771,272.400 95.568 C 272.400 95.366,272.040 95.200,271.600 95.200 C 271.160 95.200,270.800 95.028,270.800 94.818 C 270.800 94.608,270.170 94.318,269.400 94.174 C 268.630 94.029,268.000 93.751,268.000 93.555 C 268.000 93.360,267.640 93.200,267.200 93.200 C 266.760 93.200,266.400 93.040,266.400 92.845 C 266.400 92.649,265.756 92.368,264.970 92.221 C 264.183 92.073,262.921 91.605,262.165 91.180 C 261.408 90.755,260.072 90.293,259.195 90.153 C 258.318 90.013,257.600 89.741,257.600 89.549 C 257.600 89.357,257.150 89.200,256.600 89.200 C 256.050 89.200,255.600 89.037,255.600 88.838 C 255.600 88.638,254.700 88.351,253.600 88.200 C 252.500 88.049,251.600 87.762,251.600 87.562 C 251.600 87.363,251.150 87.200,250.600 87.200 C 250.050 87.200,249.600 87.033,249.600 86.829 C 249.600 86.625,248.610 86.334,247.400 86.183 C 246.190 86.032,245.200 85.749,245.200 85.554 C 245.200 85.359,244.840 85.200,244.400 85.200 C 243.960 85.200,243.600 85.376,243.600 85.590 C 243.600 86.042,242.532 85.881,237.000 84.596 C 234.800 84.085,231.200 83.375,229.000 83.019 C 226.800 82.663,223.920 82.196,222.600 81.982 C 213.819 80.556,198.144 80.132,187.000 81.020 M128.800 214.863 L 128.800 289.726 136.500 301.252 L 144.200 312.778 201.016 312.789 L 257.831 312.800 259.327 309.900 C 260.921 306.810,263.079 302.792,265.075 299.200 C 265.747 297.990,267.130 295.439,268.148 293.532 L 270.000 290.064 270.000 215.632 C 270.000 136.671,269.936 139.411,271.726 142.144 C 272.067 142.663,272.582 143.338,272.872 143.644 C 273.163 143.950,274.480 145.547,275.800 147.192 C 277.120 148.838,278.585 150.638,279.056 151.192 C 280.439 152.820,286.096 159.725,287.400 161.379 C 288.060 162.215,290.101 164.722,291.936 166.950 C 296.622 172.641,297.499 173.715,302.897 180.377 L 305.995 184.200 305.985 249.600 C 305.976 302.925,305.878 315.128,305.450 315.691 C 304.960 316.336,300.132 321.791,298.800 323.204 C 298.470 323.554,296.942 325.271,295.404 327.020 C 293.865 328.769,292.515 330.290,292.404 330.400 C 292.292 330.510,290.670 332.310,288.800 334.400 C 286.930 336.490,285.310 338.290,285.199 338.400 C 285.089 338.510,282.844 341.030,280.210 344.000 C 277.577 346.970,275.327 349.490,275.211 349.600 C 275.095 349.710,273.471 351.510,271.602 353.600 C 269.733 355.690,267.639 358.013,266.948 358.762 L 265.692 360.123 197.546 360.449 C 160.066 360.628,129.130 360.682,128.800 360.569 C 128.470 360.456,126.411 357.841,124.225 354.757 C 122.039 351.674,119.835 348.667,119.326 348.075 C 118.817 347.484,118.401 346.878,118.400 346.729 C 118.400 346.579,118.167 346.219,117.883 345.929 C 117.599 345.638,114.769 341.800,111.594 337.400 C 108.420 333.000,105.592 329.162,105.311 328.871 C 105.030 328.581,104.800 328.210,104.800 328.047 C 104.800 327.884,104.481 327.402,104.090 326.975 C 103.700 326.549,101.450 323.549,99.090 320.309 L 94.800 314.419 94.800 247.505 L 94.800 180.592 95.700 179.583 C 96.637 178.532,97.971 176.912,102.599 171.200 C 104.114 169.330,105.455 167.710,105.578 167.600 C 105.701 167.490,106.823 166.140,108.071 164.600 C 109.319 163.060,110.675 161.440,111.084 161.000 C 111.493 160.560,112.092 159.821,112.414 159.357 C 112.736 158.894,113.742 157.634,114.650 156.557 C 116.107 154.828,119.749 150.393,126.200 142.494 C 127.300 141.148,128.335 140.035,128.500 140.023 C 128.665 140.010,128.800 173.688,128.800 214.863 " stroke="none" fill="#ec4434" fill-rule="evenodd"></path><path id="path2" d="M193.911 80.293 C 194.851 80.378,196.291 80.377,197.111 80.291 C 197.930 80.205,197.160 80.136,195.400 80.137 C 193.640 80.139,192.970 80.209,193.911 80.293 M203.111 80.293 C 204.051 80.378,205.491 80.377,206.311 80.291 C 207.130 80.205,206.360 80.136,204.600 80.137 C 202.840 80.139,202.170 80.209,203.111 80.293 M260.300 359.893 C 261.235 359.977,262.765 359.977,263.700 359.893 C 264.635 359.809,263.870 359.740,262.000 359.740 C 260.130 359.740,259.365 359.809,260.300 359.893 M156.124 360.299 C 159.162 360.367,164.022 360.367,166.924 360.299 C 169.826 360.231,167.340 360.175,161.400 360.175 C 155.460 360.175,153.086 360.231,156.124 360.299 " stroke="none" fill="#f39c94" fill-rule="evenodd"></path><path id="path3" d="M199.100 80.282 C 199.595 80.378,200.405 80.378,200.900 80.282 C 201.395 80.187,200.990 80.109,200.000 80.109 C 199.010 80.109,198.605 80.187,199.100 80.282 M190.100 80.687 C 190.705 80.778,191.695 80.778,192.300 80.687 C 192.905 80.595,192.410 80.520,191.200 80.520 C 189.990 80.520,189.495 80.595,190.100 80.687 M207.907 80.690 C 208.626 80.779,209.706 80.777,210.307 80.686 C 210.908 80.595,210.320 80.522,209.000 80.524 C 207.680 80.526,207.188 80.601,207.907 80.690 M181.400 81.190 C 180.740 81.352,181.910 81.396,184.000 81.288 C 186.090 81.179,187.875 81.025,187.967 80.945 C 188.272 80.679,182.619 80.890,181.400 81.190 M212.033 80.944 C 212.125 81.024,214.000 81.182,216.200 81.296 C 218.798 81.431,219.639 81.388,218.600 81.175 C 217.022 80.851,211.710 80.664,212.033 80.944 M175.000 82.000 L 173.400 82.286 175.000 82.296 C 175.880 82.301,177.140 82.168,177.800 82.000 L 179.000 81.695 177.800 81.704 C 177.140 81.709,175.880 81.842,175.000 82.000 M222.400 81.979 C 223.386 82.316,226.690 82.541,226.367 82.250 C 226.275 82.168,225.120 81.996,223.800 81.869 C 222.245 81.720,221.752 81.758,222.400 81.979 M168.000 83.220 C 167.326 83.449,167.651 83.484,169.000 83.328 C 170.100 83.201,171.075 83.031,171.167 82.949 C 171.482 82.668,168.999 82.880,168.000 83.220 M228.833 82.949 C 228.925 83.031,229.900 83.201,231.000 83.328 C 232.349 83.484,232.674 83.449,232.000 83.220 C 231.001 82.880,228.518 82.668,228.833 82.949 M164.000 84.000 L 163.000 84.320 164.000 84.354 C 164.550 84.373,165.270 84.213,165.600 84.000 C 166.364 83.506,165.542 83.506,164.000 84.000 M234.600 84.000 C 235.040 84.189,235.760 84.338,236.200 84.332 C 236.843 84.323,236.804 84.257,236.000 84.000 C 234.632 83.562,233.581 83.562,234.600 84.000 M160.064 84.873 C 159.109 85.087,158.408 85.341,158.506 85.439 C 158.712 85.646,162.800 84.815,162.800 84.567 C 162.800 84.339,162.111 84.416,160.064 84.873 M237.800 84.750 C 238.240 84.935,239.320 85.199,240.200 85.337 C 241.215 85.495,241.508 85.464,241.000 85.250 C 240.560 85.065,239.480 84.801,238.600 84.663 C 237.585 84.505,237.292 84.536,237.800 84.750 M270.099 215.700 L 270.198 290.200 270.300 215.858 C 270.392 148.916,270.464 141.539,271.022 141.753 C 271.377 141.889,271.537 141.822,271.397 141.595 C 269.987 139.313,269.997 138.749,270.099 215.700 M118.155 152.281 C 117.307 153.316,116.822 154.034,117.077 153.876 C 117.621 153.540,120.155 150.400,119.882 150.400 C 119.780 150.400,119.003 151.247,118.155 152.281 M279.996 152.794 C 280.690 153.671,281.467 154.518,281.723 154.676 C 281.978 154.834,281.493 154.116,280.645 153.081 C 279.797 152.047,279.020 151.200,278.918 151.200 C 278.816 151.200,279.301 151.918,279.996 152.794 M113.634 157.753 L 112.669 159.000 113.813 157.912 C 114.443 157.314,114.877 156.753,114.779 156.665 C 114.680 156.577,114.165 157.067,113.634 157.753 M285.355 159.319 C 286.203 160.353,286.980 161.200,287.082 161.200 C 287.355 161.200,284.821 158.060,284.277 157.724 C 284.022 157.566,284.507 158.284,285.355 159.319 M104.986 168.184 C 104.774 168.484,104.000 169.466,103.266 170.365 C 102.533 171.264,102.010 172.000,102.104 172.000 C 102.402 172.000,105.694 167.961,105.529 167.796 C 105.443 167.709,105.198 167.884,104.986 168.184 M301.355 178.919 C 302.203 179.953,302.980 180.800,303.082 180.800 C 303.355 180.800,300.821 177.660,300.277 177.324 C 300.022 177.166,300.507 177.884,301.355 178.919 M305.400 249.600 C 305.400 285.858,305.535 315.440,305.700 315.338 C 306.092 315.096,306.092 184.104,305.700 183.862 C 305.535 183.760,305.400 213.342,305.400 249.600 M133.149 296.600 C 133.365 297.040,133.834 297.760,134.193 298.200 L 134.844 299.000 134.451 298.200 C 134.235 297.760,133.766 297.040,133.407 296.600 L 132.756 295.800 133.149 296.600 M137.149 302.600 C 137.365 303.040,137.834 303.760,138.193 304.200 L 138.844 305.000 138.451 304.200 C 138.235 303.760,137.766 303.040,137.407 302.600 L 136.756 301.800 137.149 302.600 M41.371 312.629 C 41.717 312.974,42.000 313.454,42.000 313.695 C 42.000 313.936,42.105 314.029,42.232 313.901 C 42.556 313.577,41.664 312.000,41.157 312.000 C 40.929 312.000,41.026 312.283,41.371 312.629 M172.531 313.100 C 188.334 313.158,214.074 313.158,229.731 313.100 C 245.389 313.042,232.460 312.995,201.000 312.995 C 169.540 312.995,156.729 313.042,172.531 313.100 M96.800 317.200 C 97.270 317.860,97.744 318.400,97.854 318.400 C 97.964 318.400,97.670 317.860,97.200 317.200 C 96.730 316.540,96.256 316.000,96.146 316.000 C 96.036 316.000,96.330 316.540,96.800 317.200 M44.268 319.106 C 44.394 319.605,44.655 320.110,44.848 320.230 C 45.396 320.568,45.262 319.836,44.620 318.976 C 44.060 318.227,44.048 318.232,44.268 319.106 M300.378 321.100 L 299.000 322.600 300.500 321.222 C 301.325 320.463,302.000 319.788,302.000 319.722 C 302.000 319.416,301.662 319.704,300.378 321.100 M99.497 320.900 C 99.714 321.175,100.726 322.545,101.746 323.944 C 102.766 325.343,103.600 326.355,103.600 326.193 C 103.600 325.814,99.593 320.400,99.313 320.400 C 99.197 320.400,99.280 320.625,99.497 320.900 M46.268 323.506 C 46.394 324.005,46.655 324.510,46.848 324.630 C 47.396 324.968,47.262 324.236,46.620 323.376 C 46.060 322.627,46.048 322.632,46.268 323.506 M293.900 328.218 C 293.075 329.136,292.400 329.999,292.400 330.135 C 292.400 330.271,293.146 329.572,294.058 328.583 C 294.971 327.593,295.646 326.731,295.558 326.666 C 295.471 326.602,294.725 327.300,293.900 328.218 M50.000 330.800 C 50.449 331.680,50.906 332.400,51.016 332.400 C 51.126 332.400,50.849 331.680,50.400 330.800 C 49.951 329.920,49.494 329.200,49.384 329.200 C 49.274 329.200,49.551 329.920,50.000 330.800 M290.181 332.500 L 288.600 334.200 290.300 332.619 C 291.881 331.148,292.184 330.800,291.881 330.800 C 291.816 330.800,291.051 331.565,290.181 332.500 M52.020 334.439 C 52.480 335.340,52.941 335.993,53.044 335.889 C 53.238 335.695,51.653 332.800,51.352 332.800 C 51.260 332.800,51.560 333.537,52.020 334.439 M347.400 334.800 C 347.059 335.460,346.869 336.000,346.979 336.000 C 347.089 336.000,347.459 335.460,347.800 334.800 C 348.141 334.140,348.331 333.600,348.221 333.600 C 348.111 333.600,347.741 334.140,347.400 334.800 M287.178 335.900 L 285.800 337.400 287.300 336.022 C 288.125 335.263,288.800 334.588,288.800 334.522 C 288.800 334.216,288.462 334.504,287.178 335.900 M54.749 339.000 C 54.965 339.440,55.434 340.160,55.793 340.600 L 56.444 341.400 56.051 340.600 C 55.835 340.160,55.366 339.440,55.007 339.000 L 54.356 338.200 54.749 339.000 M344.953 338.900 C 343.576 341.236,343.486 341.435,344.187 340.600 C 345.000 339.632,345.700 338.400,345.438 338.400 C 345.333 338.400,345.115 338.625,344.953 338.900 M283.375 340.100 L 282.200 341.400 283.500 340.225 C 284.215 339.579,284.800 338.994,284.800 338.925 C 284.800 338.616,284.470 338.888,283.375 340.100 M342.953 342.100 C 341.576 344.436,341.486 344.635,342.187 343.800 C 343.000 342.832,343.700 341.600,343.438 341.600 C 343.333 341.600,343.115 341.825,342.953 342.100 M280.181 343.700 L 278.600 345.400 280.300 343.819 C 281.881 342.348,282.184 342.000,281.881 342.000 C 281.816 342.000,281.051 342.765,280.181 343.700 M340.036 346.700 C 339.052 348.138,338.992 348.308,339.788 347.400 C 340.846 346.192,341.753 344.800,341.482 344.800 C 341.401 344.800,340.751 345.655,340.036 346.700 M276.641 347.445 C 274.519 349.854,274.963 349.920,277.157 347.521 C 278.123 346.464,278.753 345.617,278.557 345.638 C 278.360 345.658,277.498 346.472,276.641 347.445 M118.360 346.600 C 119.034 347.905,119.588 348.628,119.585 348.200 C 119.583 347.980,119.214 347.350,118.764 346.800 C 118.221 346.136,118.085 346.069,118.360 346.600 M273.178 351.500 L 271.800 353.000 273.300 351.622 C 274.696 350.338,274.984 350.000,274.678 350.000 C 274.612 350.000,273.937 350.675,273.178 351.500 M63.200 351.600 C 63.670 352.260,64.144 352.800,64.254 352.800 C 64.364 352.800,64.070 352.260,63.600 351.600 C 63.130 350.940,62.656 350.400,62.546 350.400 C 62.436 350.400,62.730 350.940,63.200 351.600 M65.596 354.794 C 67.392 357.062,67.980 357.278,66.357 355.074 C 65.611 354.061,64.850 353.224,64.666 353.216 C 64.483 353.207,64.901 353.918,65.596 354.794 M270.181 354.900 L 268.600 356.600 270.300 355.019 C 271.881 353.548,272.184 353.200,271.881 353.200 C 271.816 353.200,271.051 353.965,270.181 354.900 M334.559 354.100 C 332.854 356.067,332.222 356.925,332.671 356.663 C 332.930 356.512,333.710 355.671,334.404 354.794 C 335.751 353.094,335.862 352.597,334.559 354.100 M330.159 359.500 C 329.049 360.765,327.550 362.475,326.829 363.300 C 326.107 364.125,325.671 364.790,325.859 364.777 C 326.046 364.765,327.100 363.670,328.200 362.345 C 329.300 361.020,330.712 359.320,331.339 358.568 C 333.195 356.338,332.344 357.011,330.159 359.500 M266.278 359.013 C 265.660 359.556,265.314 360.000,265.508 360.000 C 265.702 360.000,266.283 359.550,266.800 359.000 C 267.995 357.728,267.731 357.734,266.278 359.013 M69.607 359.499 C 69.610 359.664,70.645 360.892,71.907 362.226 C 74.209 364.662,73.841 364.071,71.081 360.899 C 70.266 359.963,69.603 359.333,69.607 359.499 M128.537 360.494 C 128.792 360.656,135.660 360.753,143.800 360.710 C 151.940 360.666,156.800 360.580,154.600 360.518 C 144.827 360.242,128.116 360.227,128.537 360.494 M191.730 360.300 C 202.692 360.359,220.512 360.359,231.330 360.300 C 242.149 360.241,233.180 360.192,211.400 360.192 C 189.620 360.192,180.769 360.241,191.730 360.300 M319.898 370.669 C 317.532 373.012,315.651 374.984,315.718 375.051 C 315.785 375.118,317.808 373.199,320.213 370.787 C 322.618 368.374,324.499 366.402,324.393 366.405 C 324.287 366.407,322.264 368.327,319.898 370.669 M79.588 370.588 C 81.441 372.451,83.011 373.922,83.076 373.857 C 83.225 373.709,76.733 367.200,76.436 367.200 C 76.316 367.200,77.734 368.724,79.588 370.588 M84.830 375.498 C 84.863 375.825,89.713 380.034,92.979 382.569 C 95.856 384.802,94.511 383.517,89.300 379.052 C 86.825 376.931,84.814 375.332,84.830 375.498 M311.800 378.281 L 308.600 381.295 311.800 378.566 C 313.560 377.065,315.075 375.783,315.167 375.718 C 315.258 375.653,315.258 375.525,315.166 375.433 C 315.074 375.341,313.559 376.623,311.800 378.281 M303.225 385.230 C 301.809 386.337,300.144 387.542,299.525 387.908 C 298.906 388.273,298.400 388.716,298.400 388.891 C 298.400 389.202,302.623 386.222,305.000 384.233 C 307.128 382.453,305.881 383.153,303.225 385.230 M96.815 385.504 C 96.833 385.847,101.200 388.944,101.375 388.738 C 101.440 388.662,100.436 387.837,99.146 386.904 C 97.856 385.971,96.807 385.341,96.815 385.504 M103.000 390.126 C 103.660 390.681,104.740 391.439,105.400 391.810 L 106.600 392.485 105.400 391.474 C 104.740 390.919,103.660 390.161,103.000 389.790 L 101.800 389.115 103.000 390.126 M295.841 390.591 C 293.473 392.274,292.979 392.768,294.600 391.830 C 295.906 391.074,298.324 389.205,297.999 389.202 C 297.888 389.201,296.917 389.826,295.841 390.591 " stroke="none" fill="#f1857c" fill-rule="evenodd"></path><path id="path4" d="M185.793 80.412 C 185.558 80.792,191.920 80.534,192.367 80.145 C 192.458 80.065,191.074 80.000,189.290 80.000 C 187.497 80.000,185.933 80.184,185.793 80.412 M207.633 80.145 C 208.080 80.534,214.442 80.792,214.207 80.412 C 214.067 80.184,212.503 80.000,210.710 80.000 C 208.926 80.000,207.542 80.065,207.633 80.145 M177.000 81.098 C 175.680 81.178,174.420 81.426,174.200 81.649 C 173.775 82.080,177.760 81.788,180.400 81.195 C 182.009 80.833,181.550 80.820,177.000 81.098 M219.600 81.190 C 222.075 81.755,226.229 82.082,225.800 81.678 C 225.580 81.471,223.780 81.205,221.800 81.086 C 219.608 80.955,218.747 80.995,219.600 81.190 M167.400 82.681 C 163.588 83.398,163.022 83.555,163.286 83.819 C 163.473 84.006,168.437 83.168,171.600 82.416 C 174.171 81.804,170.991 82.005,167.400 82.681 M228.400 82.416 C 231.563 83.168,236.527 84.006,236.714 83.819 C 236.985 83.548,236.397 83.395,232.200 82.641 C 228.497 81.976,225.907 81.823,228.400 82.416 M158.400 84.783 C 155.527 85.742,156.630 85.761,160.200 84.813 C 162.027 84.329,162.583 84.067,161.800 84.060 C 161.140 84.054,159.610 84.379,158.400 84.783 M237.600 84.146 C 237.600 84.385,243.249 85.684,243.443 85.490 C 243.541 85.392,242.570 85.016,241.285 84.656 C 239.058 84.031,237.600 83.829,237.600 84.146 M128.400 215.320 L 128.600 290.200 128.701 215.621 C 128.757 174.603,128.667 140.907,128.501 140.741 C 128.335 140.575,128.290 174.136,128.400 215.320 M270.596 216.000 C 270.596 256.810,270.643 273.505,270.700 253.100 C 270.757 232.695,270.757 199.305,270.700 178.900 C 270.643 158.495,270.596 175.190,270.596 216.000 M94.995 247.600 C 94.995 284.230,95.042 299.215,95.100 280.900 C 95.158 262.585,95.158 232.615,95.100 214.300 C 95.042 195.985,94.995 210.970,94.995 247.600 M305.395 249.600 C 305.395 285.570,305.442 300.285,305.500 282.300 C 305.558 264.315,305.558 234.885,305.500 216.900 C 305.442 198.915,305.395 213.630,305.395 249.600 M172.469 313.500 C 188.017 313.558,213.577 313.558,229.269 313.500 C 244.961 313.442,232.240 313.395,201.000 313.395 C 169.760 313.395,156.921 313.442,172.469 313.500 M41.723 314.200 C 42.460 316.650,43.035 318.000,43.341 318.000 C 43.530 318.000,43.552 317.685,43.389 317.300 C 43.226 316.915,42.880 316.018,42.620 315.307 C 42.095 313.869,41.344 312.942,41.723 314.200 M357.379 315.434 C 356.950 316.513,356.540 317.532,356.467 317.698 C 356.393 317.864,356.528 318.000,356.767 318.000 C 357.005 318.000,357.200 317.758,357.200 317.461 C 357.200 317.165,357.484 316.353,357.832 315.657 C 358.179 314.960,358.395 314.184,358.310 313.931 C 358.226 313.679,357.807 314.355,357.379 315.434 M303.775 316.900 L 302.600 318.200 303.900 317.025 C 304.615 316.379,305.200 315.794,305.200 315.725 C 305.200 315.416,304.870 315.688,303.775 316.900 M43.818 319.300 C 43.968 319.795,44.250 320.371,44.445 320.580 C 44.640 320.789,44.800 321.284,44.800 321.680 C 44.800 322.076,44.980 322.400,45.200 322.400 C 45.729 322.400,45.727 322.390,44.781 320.251 C 43.926 318.318,43.349 317.748,43.818 319.300 M355.650 319.450 C 355.386 320.029,355.262 320.595,355.374 320.707 C 355.486 320.819,355.768 320.411,356.000 319.800 C 356.232 319.189,356.357 318.623,356.276 318.543 C 356.196 318.462,355.914 318.871,355.650 319.450 M45.600 323.117 C 45.600 323.758,46.945 326.378,47.280 326.390 C 47.435 326.396,47.238 325.678,46.842 324.795 C 46.054 323.034,45.600 322.421,45.600 323.117 M353.281 324.609 C 352.802 325.594,352.543 326.398,352.705 326.395 C 353.082 326.390,354.593 323.260,354.341 323.007 C 354.236 322.903,353.759 323.624,353.281 324.609 M47.600 327.184 C 47.600 327.829,48.979 330.380,49.333 330.390 C 49.517 330.396,49.597 330.265,49.512 330.100 C 49.427 329.935,49.050 329.125,48.674 328.300 C 48.005 326.835,47.600 326.413,47.600 327.184 M351.382 328.305 C 350.963 329.127,350.556 329.935,350.477 330.100 C 350.398 330.265,350.483 330.398,350.667 330.395 C 351.074 330.390,352.608 327.274,352.337 327.003 C 352.230 326.897,351.801 327.483,351.382 328.305 M293.375 328.500 L 292.200 329.800 293.500 328.625 C 294.712 327.530,294.984 327.200,294.675 327.200 C 294.606 327.200,294.021 327.785,293.375 328.500 M49.726 331.300 C 50.422 332.942,51.039 333.994,51.308 333.997 C 51.478 333.999,51.249 333.280,50.800 332.400 C 50.063 330.956,49.210 330.082,49.726 331.300 M349.256 332.383 C 348.792 333.272,348.545 333.996,348.706 333.990 C 349.066 333.978,350.501 331.167,350.266 330.933 C 350.174 330.841,349.719 331.493,349.256 332.383 M51.602 334.700 C 51.603 334.865,52.142 335.810,52.800 336.800 C 53.458 337.790,53.997 338.825,53.998 339.100 C 53.999 339.375,54.141 339.600,54.314 339.600 C 54.486 339.600,54.966 340.185,55.379 340.900 C 56.917 343.562,61.010 349.599,61.276 349.599 C 61.428 349.600,59.976 347.215,58.050 344.300 C 56.125 341.385,53.962 337.965,53.245 336.700 C 52.009 334.520,51.598 334.019,51.602 334.700 M347.240 335.823 C 346.778 336.605,346.400 337.316,346.400 337.403 C 346.400 338.688,334.882 354.620,329.268 361.100 C 328.077 362.475,327.287 363.600,327.514 363.600 C 327.740 363.600,328.527 362.852,329.263 361.937 C 329.998 361.023,330.876 359.981,331.214 359.623 C 331.552 359.265,332.362 358.258,333.014 357.386 C 333.666 356.514,334.398 355.620,334.640 355.400 C 335.760 354.381,345.200 340.574,345.200 339.954 C 345.200 339.759,345.336 339.600,345.502 339.600 C 345.669 339.600,346.046 339.056,346.340 338.391 C 346.634 337.726,347.104 336.953,347.385 336.672 C 347.917 336.140,348.592 334.400,348.266 334.400 C 348.163 334.400,347.701 335.040,347.240 335.823 M282.975 340.100 L 281.800 341.400 283.100 340.225 C 283.815 339.579,284.400 338.994,284.400 338.925 C 284.400 338.616,284.070 338.888,282.975 340.100 M276.175 347.700 L 275.000 349.000 276.300 347.825 C 277.015 347.179,277.600 346.594,277.600 346.525 C 277.600 346.216,277.270 346.488,276.175 347.700 M61.840 350.500 C 62.332 351.356,64.969 354.959,65.600 355.636 C 66.256 356.340,66.710 356.900,68.806 359.590 C 71.476 363.018,82.179 374.126,84.800 376.189 C 85.350 376.622,83.005 374.101,79.589 370.588 C 73.693 364.523,69.301 359.685,68.016 357.839 C 67.695 357.377,67.240 356.802,67.004 356.559 C 66.768 356.316,65.521 354.741,64.232 353.059 C 62.105 350.282,61.093 349.199,61.840 350.500 M238.300 359.899 C 242.095 359.965,248.305 359.965,252.100 359.899 C 255.895 359.834,252.790 359.780,245.200 359.780 C 237.610 359.780,234.505 359.834,238.300 359.899 M134.324 360.299 C 137.473 360.367,142.513 360.367,145.524 360.299 C 148.536 360.231,145.960 360.176,139.800 360.176 C 133.640 360.176,131.176 360.232,134.324 360.299 M320.600 370.400 C 317.085 373.920,314.350 376.800,314.522 376.800 C 315.195 376.800,324.041 368.032,326.749 364.679 C 328.121 362.981,326.529 364.462,320.600 370.400 M86.003 377.025 C 86.007 377.444,89.349 380.465,92.762 383.135 C 93.511 383.721,94.676 384.695,95.351 385.300 C 96.026 385.905,96.691 386.400,96.828 386.400 C 96.965 386.400,97.442 386.716,97.886 387.101 C 98.331 387.487,99.997 388.702,101.588 389.801 C 103.179 390.901,105.273 392.384,106.240 393.097 C 107.208 393.811,107.995 394.171,107.989 393.897 C 107.982 393.624,106.954 392.780,105.702 392.022 C 104.451 391.264,103.151 390.420,102.814 390.146 C 102.476 389.872,99.832 387.882,96.938 385.724 C 92.187 382.180,90.683 380.947,87.100 377.660 C 86.495 377.105,86.001 376.819,86.003 377.025 M310.568 379.720 C 305.525 384.136,300.948 387.657,295.700 391.158 C 293.665 392.515,292.000 393.800,292.000 394.013 C 292.000 394.653,292.587 394.451,293.200 393.600 C 293.517 393.160,293.923 392.800,294.102 392.800 C 294.392 392.800,301.500 387.765,302.000 387.205 C 302.110 387.082,302.709 386.657,303.331 386.261 C 303.953 385.865,304.853 385.205,305.331 384.795 C 305.809 384.384,306.650 383.679,307.200 383.227 C 311.953 379.319,314.268 377.217,313.800 377.229 C 313.580 377.235,312.126 378.356,310.568 379.720 " stroke="none" fill="#eea49e" fill-rule="evenodd"></path></g></svg>